<svg width="37" height="35" viewBox="0 0 37 35" fill="none" xmlns="http://www.w3.org/2000/svg">
  <path d="M14.9147 29.0215L17.9884 33.8449C18.2387 34.2308 18.795 34.2446 19.0593 33.8725L22.3694 29.118C22.898 28.36 23.7603 27.8777 24.6921 27.8501L30.2415 27.6158C33.343 27.478 36.069 25.2592 36.5141 22.2136C36.5836 21.6899 36.6253 21.1249 36.6253 20.4909V6.93021C36.6253 5.80015 36.3194 4.68387 35.6935 3.73297C34.4835 1.91385 31.7853 -0.332488 25.8743 0.149854L7.68241 0.0947294C7.68241 0.0947294 0.255445 -0.387613 0.700507 9.60377L0.686599 20.0086C0.686599 21.5521 1.0343 23.0956 1.84098 24.4048C2.81455 26.0034 4.5948 27.6296 7.79368 27.7123L12.8423 27.8501C13.6907 27.8777 14.4557 28.3187 14.9147 29.0215Z" fill="white"/>
</svg>
